<svg xmlns="http://www.w3.org/2000/svg" x="0px" y="0px" width="50" height="50" viewBox="0,0,256,256">
<g fill="#e5e5cb" fill-rule="nonzero" stroke="none" stroke-width="1" stroke-linecap="butt" stroke-linejoin="miter" stroke-miterlimit="10" stroke-dasharray="" stroke-dashoffset="0" font-family="none" font-weight="none" font-size="none" text-anchor="none" style="mix-blend-mode: normal"><g transform="scale(5.12,5.12)"><path d="M7.8125,3c-0.47656,0.08984 -0.82031,0.51172 -0.8125,1v42c0,0.55078 0.44922,1 1,1h34c0.55078,0 1,-0.44922 1,-1v-42c0,-0.55078 -0.44922,-1 -1,-1h-34c-0.03125,0 -0.0625,0 -0.09375,0c-0.03125,0 -0.0625,0 -0.09375,0zM9,5h32v40h-32zM16,11l-3,3h2v15h-2l3,3l3,-3h-2v-15h2zM29,11c-3.85547,0 -7,3.14453 -7,7c0,2.14844 0.87891,3.64063 1.625,4.90625c0.71875,1.21875 1.33203,2.25 1.375,3.90625c-0.00781,0.0625 -0.00781,0.125 0,0.1875c0,0.03125 0,0.0625 0,0.09375v0.90625c0,1.64453 1.35547,3 3,3c0,0.55078 0.44922,1 1,1c0.55078,0 1,-0.44922 1,-1c1.64453,0 3,-1.35547 3,-3v-0.84375c0.00391,-0.05078 0.00391,-0.10547 0,-0.15625c0,-0.03125 0,-0.0625 0,-0.09375c0.02344,-1.71484 0.64453,-2.78125 1.375,-4.03125c0.74609,-1.27344 1.625,-2.75781 1.625,-4.875c0,-3.85547 -3.14453,-7 -7,-7zM29,13c2.77344,0 5,2.22656 5,5c0,1.57422 -0.62109,2.58203 -1.375,3.875c-0.63672,1.08984 -1.35156,2.38672 -1.5625,4.125h-4.125c-0.20703,-1.74219 -0.92578,-3.04297 -1.5625,-4.125c-0.75391,-1.28125 -1.375,-2.25391 -1.375,-3.875c0,-2.77344 2.22656,-5 5,-5zM26.8125,17c-0.47656,0.08984 -0.82031,0.51172 -0.8125,1v1c-0.00391,0.35938 0.18359,0.69531 0.49609,0.87891c0.3125,0.17969 0.69531,0.17969 1.00781,0c0.3125,-0.18359 0.5,-0.51953 0.49609,-0.87891h2c-0.00391,0.35938 0.18359,0.69531 0.49609,0.87891c0.3125,0.17969 0.69531,0.17969 1.00781,0c0.3125,-0.18359 0.5,-0.51953 0.49609,-0.87891v-1c0,-0.55078 -0.44922,-1 -1,-1h-4c-0.03125,0 -0.0625,0 -0.09375,0c-0.03125,0 -0.0625,0 -0.09375,0zM27,28h4c0,0.56641 -0.43359,1 -1,1h-2c-0.56641,0 -1,-0.43359 -1,-1zM26,34l-3,3l3,3v-2h6v2l3,-3l-3,-3v2h-6z"></path></g></g>
</svg>