<svg width="114" height="108" viewBox="0 0 114 108" fill="none" xmlns="http://www.w3.org/2000/svg">
<g filter="url(#filter0_d_1_6)">
<path d="M109.399 42.4448C109.664 44.0955 109.844 45.7726 109.933 47.472L109.434 47.4983C109.478 48.327 109.5 49.161 109.5 50C109.5 50.839 109.478 51.673 109.434 52.5017L109.933 52.528C109.844 54.2275 109.664 55.9045 109.399 57.5552L108.905 57.4758C108.639 59.1339 108.285 60.765 107.849 62.3648L108.331 62.4963C107.886 64.1301 107.355 65.7315 106.743 67.2961L106.278 67.1141C105.669 68.6715 104.98 70.1923 104.214 71.6718L104.658 71.9015C103.883 73.3998 103.031 74.8561 102.107 76.2658L101.689 75.9916C100.774 77.3861 99.7885 78.7347 98.7361 80.0329L99.1245 80.3478C98.0648 81.6548 96.9384 82.9111 95.75 84.1121L95.3946 83.7604C94.2236 84.9438 92.9917 86.073 91.7037 87.1437L92.0233 87.5282C90.7315 88.602 89.3839 89.6173 87.985 90.5698L87.7036 90.1565C86.3293 91.0923 84.9049 91.967 83.4351 92.7763L83.6762 93.2143C82.2071 94.0232 80.6929 94.7673 79.1382 95.4425L78.939 94.9839C77.4161 95.6453 75.8539 96.2399 74.2566 96.7639L74.4124 97.239C72.8217 97.7608 71.1966 98.213 69.541 98.592L69.4295 98.1046C67.8141 98.4743 66.1694 98.7737 64.4992 98.9989L64.5661 99.4944C62.9105 99.7176 61.2303 99.8687 59.5291 99.9441L59.507 99.4446C58.6762 99.4814 57.8404 99.5 57 99.5C56.1596 99.5 55.3238 99.4814 54.493 99.4446L54.4709 99.9441C52.7697 99.8687 51.0895 99.7176 49.4339 99.4944L49.5008 98.9989C47.8306 98.7737 46.1859 98.4743 44.5705 98.1046L44.459 98.592C42.8034 98.213 41.1782 97.7608 39.5876 97.239L39.7434 96.7639C38.1461 96.2399 36.5839 95.6453 35.061 94.9839L34.8618 95.4425C33.3071 94.7673 31.7929 94.0232 30.3237 93.2143L30.5649 92.7763C29.0951 91.967 27.6707 91.0923 26.2964 90.1565L26.015 90.5698C24.6161 89.6173 23.2685 88.602 21.9767 87.5282L22.2963 87.1437C21.0083 86.073 19.7764 84.9438 18.6054 83.7604L18.25 84.1121C17.0616 82.9111 15.9352 81.6548 14.8755 80.3478L15.2639 80.0329C14.2115 78.7347 13.2257 77.3861 12.3114 75.9916L11.8933 76.2658C10.969 74.8561 10.1168 73.3998 9.34176 71.9015L9.78585 71.6718C9.02047 70.1923 8.33106 68.6715 7.72239 67.1141L7.25669 67.2961C6.64521 65.7315 6.11431 64.1301 5.66874 62.4963L6.15112 62.3648C5.71479 60.765 5.36116 59.1339 5.09477 57.4758L4.6011 57.5551C4.33592 55.9045 4.15627 54.2274 4.06657 52.528L4.56587 52.5017C4.52213 51.673 4.5 50.839 4.5 50C4.5 49.161 4.52213 48.327 4.56587 47.4983L4.06657 47.472C4.15627 45.7725 4.33592 44.0955 4.6011 42.4448L5.09477 42.5242C5.36116 40.8661 5.71479 39.235 6.15112 37.6352L5.66873 37.5037C6.11431 35.8699 6.64521 34.2685 7.25669 32.7039L7.72239 32.8859C8.33106 31.3285 9.02047 29.8077 9.78585 28.3282L9.34176 28.0985C10.1168 26.6002 10.969 25.1439 11.8933 23.7342L12.3114 24.0084C13.2257 22.6139 14.2115 21.2653 15.2639 19.9671L14.8755 19.6522C15.9352 18.3452 17.0616 17.0889 18.25 15.8879L18.6054 16.2396C19.7764 15.0562 21.0083 13.927 22.2963 12.8563L21.9767 12.4718C23.2685 11.398 24.6161 10.3827 26.015 9.43021L26.2964 9.84349C27.6707 8.90767 29.0951 8.033 30.5649 7.22372L30.3238 6.78572C31.7929 5.97681 33.3071 5.23268 34.8618 4.55746L35.061 5.01608C36.5839 4.35472 38.1461 3.76006 39.7434 3.23611L39.5876 2.76101C41.1783 2.23924 42.8034 1.78696 44.459 1.40802L44.5705 1.89541C46.1859 1.52566 47.8306 1.22635 49.5008 1.00114L49.4339 0.505624C51.0895 0.282385 52.7697 0.131323 54.4709 0.0559249L54.493 0.555434C55.3238 0.518617 56.1596 0.5 57 0.5C57.8404 0.5 58.6762 0.518617 59.507 0.555435L59.5291 0.0559249C61.2303 0.131323 62.9105 0.282385 64.5661 0.505625L64.4992 1.00114C66.1694 1.22635 67.8141 1.52566 69.4295 1.89541L69.541 1.40802C71.1966 1.78696 72.8218 2.23924 74.4124 2.76101L74.2566 3.23611C75.854 3.76006 77.4161 4.35472 78.939 5.01608L79.1382 4.55746C80.6929 5.23268 82.2071 5.97681 83.6763 6.78572L83.4351 7.22372C84.9049 8.033 86.3293 8.90767 87.7036 9.84349L87.985 9.43021C89.3839 10.3827 90.7315 11.398 92.0233 12.4718L91.7037 12.8563C92.9917 13.927 94.2236 15.0562 95.3946 16.2396L95.75 15.8879C96.9384 17.0889 98.0648 18.3452 99.1245 19.6522L98.7361 19.9671C99.7885 21.2653 100.774 22.6139 101.689 24.0084L102.107 23.7342C103.031 25.1439 103.883 26.6002 104.658 28.0985L104.214 28.3282C104.98 29.8077 105.669 31.3285 106.278 32.8859L106.743 32.7039C107.355 34.2685 107.886 35.8699 108.331 37.5037L107.849 37.6352C108.285 39.235 108.639 40.8661 108.905 42.5242L109.399 42.4448Z" stroke="url(#paint0_linear_1_6)" stroke-dasharray="5 5" shape-rendering="crispEdges"/>
</g>
<defs>
<filter id="filter0_d_1_6" x="0" y="0" width="114" height="108" filterUnits="userSpaceOnUse" color-interpolation-filters="sRGB">
<feFlood flood-opacity="0" result="BackgroundImageFix"/>
<feColorMatrix in="SourceAlpha" type="matrix" values="0 0 0 0 0 0 0 0 0 0 0 0 0 0 0 0 0 0 127 0" result="hardAlpha"/>
<feOffset dy="4"/>
<feGaussianBlur stdDeviation="2"/>
<feComposite in2="hardAlpha" operator="out"/>
<feColorMatrix type="matrix" values="0 0 0 0 0 0 0 0 0 0 0 0 0 0 0 0 0 0 0.25 0"/>
<feBlend mode="normal" in2="BackgroundImageFix" result="effect1_dropShadow_1_6"/>
<feBlend mode="normal" in="SourceGraphic" in2="effect1_dropShadow_1_6" result="shape"/>
</filter>
<linearGradient id="paint0_linear_1_6" x1="8.55914" y1="45.3333" x2="104.334" y2="48.2573" gradientUnits="userSpaceOnUse">
<stop offset="0.465" stop-color="#1A120B"/>
<stop offset="1" stop-color="#E5E5CB"/>
</linearGradient>
</defs>
</svg>
