<svg xmlns="http://www.w3.org/2000/svg" x="0px" y="0px" width="24" height="24" viewBox="0,0,256,256">
<g fill="#e5e5cb" fill-rule="nonzero" stroke="none" stroke-width="1" stroke-linecap="butt" stroke-linejoin="miter" stroke-miterlimit="10" stroke-dasharray="" stroke-dashoffset="0" font-family="none" font-weight="none" font-size="none" text-anchor="none" style="mix-blend-mode: normal"><g transform="scale(5.12,5.12)"><path d="M24.8125,7c-0.0625,0.01563 -0.12891,0.03516 -0.1875,0.0625l-24,10c-0.39062,0.14453 -0.65234,0.51953 -0.65234,0.9375c0,0.41797 0.26172,0.79297 0.65234,0.9375l24,10c0.24219,0.09766 0.50781,0.09766 0.75,0l24,-10c0.39063,-0.14453 0.65234,-0.51953 0.65234,-0.9375c0,-0.41797 -0.26172,-0.79297 -0.65234,-0.9375l-24,-10c-0.14844,-0.05859 -0.30859,-0.07812 -0.46875,-0.0625c-0.03125,0 -0.0625,0 -0.09375,0zM25,9.09375l21.375,8.90625l-21.375,8.90625l-21.375,-8.90625zM0.8125,22c-0.46094,0.0625 -0.81641,0.43359 -0.85937,0.89453c-0.04687,0.46094 0.23438,0.89453 0.67188,1.04297l24,10c0.24219,0.09766 0.50781,0.09766 0.75,0l24,-10c0.51953,-0.20703 0.76953,-0.79297 0.5625,-1.3125c-0.20703,-0.51953 -0.79297,-0.76953 -1.3125,-0.5625l-23.625,9.84375l-23.625,-9.84375c-0.17578,-0.07422 -0.37109,-0.09766 -0.5625,-0.0625zM0.8125,27c-0.46094,0.0625 -0.81641,0.43359 -0.85937,0.89453c-0.04687,0.46094 0.23438,0.89453 0.67188,1.04297l24,10c0.24219,0.09766 0.50781,0.09766 0.75,0l24,-10c0.51953,-0.20703 0.76953,-0.79297 0.5625,-1.3125c-0.20703,-0.51953 -0.79297,-0.76953 -1.3125,-0.5625l-23.625,9.84375l-23.625,-9.84375c-0.17578,-0.07422 -0.37109,-0.09766 -0.5625,-0.0625zM0.8125,32c-0.46094,0.0625 -0.81641,0.43359 -0.85937,0.89453c-0.04687,0.46094 0.23438,0.89453 0.67188,1.04297l24,10c0.24219,0.09766 0.50781,0.09766 0.75,0l24,-10c0.51953,-0.20703 0.76953,-0.79297 0.5625,-1.3125c-0.20703,-0.51953 -0.79297,-0.76953 -1.3125,-0.5625l-23.625,9.84375l-23.625,-9.84375c-0.17578,-0.07422 -0.37109,-0.09766 -0.5625,-0.0625z"></path></g></g>
</svg>